<svg xmlns="http://www.w3.org/2000/svg" width="138.919" height="30" viewBox="0 0 138.919 30">
  <g id="Group_3205" data-name="Group 3205" transform="translate(-79.937 -195.062)">
    <g id="Group_3265" data-name="Group 3265" transform="translate(79.937 195.062)">
      <g id="Group_3207" data-name="Group 3207" transform="translate(12.333 14.167)">
        <g id="Group_3206" data-name="Group 3206">
          <g id="Group_3205-2" data-name="Group 3205">
            <circle id="Ellipse_261" data-name="Ellipse 261" cx="0.805" cy="0.805" r="0.805" fill="#ddd"/>
          </g>
        </g>
      </g>
      <g id="Group_3210" data-name="Group 3210" transform="translate(0 14.302)">
        <g id="Group_3209" data-name="Group 3209">
          <g id="Group_3208" data-name="Group 3208">
            <path id="Path_1214" data-name="Path 1214" d="M80.607,226.636a.67.67,0,1,0-.67-.67A.671.671,0,0,0,80.607,226.636Z" transform="translate(-79.937 -225.295)" fill="#ddd"/>
          </g>
        </g>
      </g>
      <g id="Group_3213" data-name="Group 3213" transform="translate(12.638 20.055)">
        <g id="Group_3212" data-name="Group 3212">
          <g id="Group_3211" data-name="Group 3211">
            <circle id="Ellipse_262" data-name="Ellipse 262" cx="0.805" cy="0.805" r="0.805" fill="#ddd"/>
          </g>
        </g>
      </g>
      <g id="Group_3216" data-name="Group 3216" transform="translate(0.374 21.492)">
        <g id="Group_3215" data-name="Group 3215">
          <g id="Group_3214" data-name="Group 3214">
            <path id="Path_1215" data-name="Path 1215" d="M81.467,241.832a.67.67,0,1,0-.737-.6A.671.671,0,0,0,81.467,241.832Z" transform="translate(-80.727 -240.496)" fill="#ddd"/>
          </g>
        </g>
      </g>
      <g id="Group_3219" data-name="Group 3219" transform="translate(13.558 25.878)">
        <g id="Group_3218" data-name="Group 3218">
          <g id="Group_3217" data-name="Group 3217">
            <circle id="Ellipse_263" data-name="Ellipse 263" cx="0.805" cy="0.805" r="0.805" fill="#ddd"/>
          </g>
        </g>
      </g>
      <g id="Group_3222" data-name="Group 3222" transform="translate(1.497 28.604)">
        <g id="Group_3221" data-name="Group 3221">
          <g id="Group_3220" data-name="Group 3220">
            <path id="Path_1216" data-name="Path 1216" d="M83.912,256.856a.67.67,0,1,0-.8-.516A.671.671,0,0,0,83.912,256.856Z" transform="translate(-83.102 -255.531)" fill="#ddd"/>
          </g>
        </g>
      </g>
      <g id="Group_3225" data-name="Group 3225" transform="translate(123.74 25.933)">
        <g id="Group_3224" data-name="Group 3224">
          <g id="Group_3223" data-name="Group 3223">
            <circle id="Ellipse_264" data-name="Ellipse 264" cx="0.805" cy="0.805" r="0.805" fill="#ddd"/>
          </g>
        </g>
      </g>
      <g id="Group_3228" data-name="Group 3228" transform="translate(136.069 28.66)">
        <g id="Group_3227" data-name="Group 3227">
          <g id="Group_3226" data-name="Group 3226">
            <path id="Path_1217" data-name="Path 1217" d="M368.392,255.663a.67.67,0,1,0,.516.795A.67.67,0,0,0,368.392,255.663Z" transform="translate(-367.583 -255.648)" fill="#ddd"/>
          </g>
        </g>
      </g>
      <g id="Group_3231" data-name="Group 3231" transform="translate(124.665 20.111)">
        <g id="Group_3230" data-name="Group 3230">
          <g id="Group_3229" data-name="Group 3229">
            <circle id="Ellipse_265" data-name="Ellipse 265" cx="0.805" cy="0.805" r="0.805" fill="#ddd"/>
          </g>
        </g>
      </g>
      <g id="Group_3234" data-name="Group 3234" transform="translate(137.199 21.549)">
        <g id="Group_3233" data-name="Group 3233">
          <g id="Group_3232" data-name="Group 3232">
            <path id="Path_1218" data-name="Path 1218" d="M370.71,240.619a.67.67,0,1,0,.6.736A.671.671,0,0,0,370.71,240.619Z" transform="translate(-369.97 -240.615)" fill="#ddd"/>
          </g>
        </g>
      </g>
      <g id="Group_3237" data-name="Group 3237" transform="translate(124.977 14.224)">
        <g id="Group_3236" data-name="Group 3236">
          <g id="Group_3235" data-name="Group 3235">
            <circle id="Ellipse_266" data-name="Ellipse 266" cx="0.805" cy="0.805" r="0.805" fill="#ddd"/>
          </g>
        </g>
      </g>
      <g id="Group_3240" data-name="Group 3240" transform="translate(137.578 14.358)">
        <g id="Group_3239" data-name="Group 3239">
          <g id="Group_3238" data-name="Group 3238">
            <path id="Path_1219" data-name="Path 1219" d="M371.443,225.415a.67.67,0,1,0,.67.67A.671.671,0,0,0,371.443,225.415Z" transform="translate(-370.773 -225.415)" fill="#ddd"/>
          </g>
        </g>
      </g>
      <g id="Group_3243" data-name="Group 3243" transform="translate(124.671 8.336)">
        <g id="Group_3242" data-name="Group 3242">
          <g id="Group_3241" data-name="Group 3241">
            <circle id="Ellipse_267" data-name="Ellipse 267" cx="0.805" cy="0.805" r="0.805" fill="#ddd"/>
          </g>
        </g>
      </g>
      <g id="Group_3246" data-name="Group 3246" transform="translate(137.204 7.168)">
        <g id="Group_3245" data-name="Group 3245">
          <g id="Group_3244" data-name="Group 3244">
            <path id="Path_1220" data-name="Path 1220" d="M370.582,210.218a.67.67,0,1,0,.737.6A.671.671,0,0,0,370.582,210.218Z" transform="translate(-369.982 -210.214)" fill="#ddd"/>
          </g>
        </g>
      </g>
      <g id="Group_3249" data-name="Group 3249" transform="translate(123.752 2.513)">
        <g id="Group_3248" data-name="Group 3248">
          <g id="Group_3247" data-name="Group 3247">
            <circle id="Ellipse_268" data-name="Ellipse 268" cx="0.805" cy="0.805" r="0.805" fill="#ddd"/>
          </g>
        </g>
      </g>
      <g id="Group_3252" data-name="Group 3252" transform="translate(136.081 0.055)">
        <g id="Group_3251" data-name="Group 3251">
          <g id="Group_3250" data-name="Group 3250">
            <path id="Path_1221" data-name="Path 1221" d="M368.139,195.194a.67.67,0,1,0,.795.517A.671.671,0,0,0,368.139,195.194Z" transform="translate(-367.608 -195.179)" fill="#ddd"/>
          </g>
        </g>
      </g>
      <g id="Group_3255" data-name="Group 3255" transform="translate(13.569 2.458)">
        <g id="Group_3254" data-name="Group 3254">
          <g id="Group_3253" data-name="Group 3253">
            <circle id="Ellipse_269" data-name="Ellipse 269" cx="0.805" cy="0.805" r="0.805" fill="#ddd"/>
          </g>
        </g>
      </g>
      <g id="Group_3258" data-name="Group 3258" transform="translate(1.509)">
        <g id="Group_3257" data-name="Group 3257">
          <g id="Group_3256" data-name="Group 3256">
            <path id="Path_1222" data-name="Path 1222" d="M83.658,196.388a.67.67,0,1,0-.516-.795A.672.672,0,0,0,83.658,196.388Z" transform="translate(-83.127 -195.062)" fill="#ddd"/>
          </g>
        </g>
      </g>
      <g id="Group_3261" data-name="Group 3261" transform="translate(12.644 8.28)">
        <g id="Group_3260" data-name="Group 3260">
          <g id="Group_3259" data-name="Group 3259">
            <circle id="Ellipse_270" data-name="Ellipse 270" cx="0.805" cy="0.805" r="0.805" fill="#ddd"/>
          </g>
        </g>
      </g>
      <g id="Group_3264" data-name="Group 3264" transform="translate(0.38 7.111)">
        <g id="Group_3263" data-name="Group 3263">
          <g id="Group_3262" data-name="Group 3262">
            <path id="Path_1223" data-name="Path 1223" d="M81.34,211.432a.67.67,0,1,0-.6-.737A.672.672,0,0,0,81.34,211.432Z" transform="translate(-80.74 -210.095)" fill="#ddd"/>
          </g>
        </g>
      </g>
    </g>
    <g id="Group_3267" data-name="Group 3267" transform="translate(103.796 196.966)">
      <g id="Group_3266" data-name="Group 3266" transform="translate(0)">
        <path id="Path_1224" data-name="Path 1224" d="M163.481,199.316h1.481l1.579,4.758,1.676-4.758h1.035l1.676,4.758,1.579-4.758h1.481l-2.526,7.621h-1.035l-1.7-4.823-1.688,4.823h-1.035Z" transform="translate(-147.82 -199.207)" fill="#ddd"/>
        <path id="Path_1225" data-name="Path 1225" d="M187.76,206.937l3.266-7.621h1.034l3.266,7.621h-1.535l-.718-1.687h-3.06l-.719,1.687Zm2.809-2.994h1.938l-.968-2.254Z" transform="translate(-160.614 -199.207)" fill="#ddd"/>
        <path id="Path_1226" data-name="Path 1226" d="M211.669,199.316v1.306h-2.014v6.315h-1.469v-6.315h-2.014v-1.306Z" transform="translate(-170.316 -199.207)" fill="#ddd"/>
        <path id="Path_1227" data-name="Path 1227" d="M223.29,203.005a2.564,2.564,0,0,0,2.6,2.613,2.665,2.665,0,0,0,2.155-1.056l1.012.9a4,4,0,0,1-3.2,1.458,3.921,3.921,0,1,1-.022-7.838,3.963,3.963,0,0,1,2.787,1.088l-.947,1a2.614,2.614,0,0,0-1.851-.784A2.543,2.543,0,0,0,223.29,203.005Z" transform="translate(-178.563 -199.086)" fill="#ddd"/>
        <path id="Path_1228" data-name="Path 1228" d="M247.468,203.709h-3.81v3.228h-1.47v-7.621h1.47V202.4h3.81v-3.087h1.47v7.621h-1.47Z" transform="translate(-189.295 -199.207)" fill="#ddd"/>
        <path id="Path_1229" data-name="Path 1229" d="M264.831,200.622V202.4h2.341v1.306h-2.341v1.922h3.212v1.306h-4.682v-7.621h4.572v1.306Z" transform="translate(-200.452 -199.207)" fill="#ddd"/>
        <path id="Path_1230" data-name="Path 1230" d="M134.1,221l3.288,7.62h-.654l-1-2.3h-3.7l-1,2.3h-.653l3.288-7.62Zm-1.807,4.7h3.168l-1.579-3.679Z" transform="translate(-130.374 -210.635)" fill="#ddd"/>
        <path id="Path_1231" data-name="Path 1231" d="M150.143,221h.435l5.117,6.346V221h.654v7.62h-.436l-5.116-6.347v6.347h-.653Z" transform="translate(-140.791 -210.635)" fill="#ddd"/>
        <path id="Path_1232" data-name="Path 1232" d="M175.426,227.9a4.189,4.189,0,0,1-2.624.719h-2.177V221H172.8a4.186,4.186,0,0,1,2.624.719,3.915,3.915,0,0,1,0,6.183Zm-.338-5.639a3.572,3.572,0,0,0-2.319-.642h-1.492V228h1.492a3.57,3.57,0,0,0,2.319-.642,3.308,3.308,0,0,0,0-5.095Z" transform="translate(-151.584 -210.635)" fill="#ddd"/>
        <path id="Path_1233" data-name="Path 1233" d="M189.611,221h1.481l1.579,4.757L194.347,221h1.035l1.677,4.757L198.636,221h1.481l-2.526,7.62h-1.034l-1.7-4.823-1.688,4.823h-1.035Z" transform="translate(-161.589 -210.635)" fill="#ddd"/>
        <path id="Path_1234" data-name="Path 1234" d="M219.476,220.772a3.92,3.92,0,1,1-3.974,3.919A3.849,3.849,0,0,1,219.476,220.772Zm0,6.532a2.615,2.615,0,1,0-2.5-2.613A2.53,2.53,0,0,0,219.476,227.3Z" transform="translate(-175.233 -210.514)" fill="#ddd"/>
        <path id="Path_1235" data-name="Path 1235" d="M238.055,221h1.034l4.246,4.964V221h1.47v7.62h-1.035l-4.246-4.964v4.964h-1.47Z" transform="translate(-187.117 -210.635)" fill="#ddd"/>
        <path id="Path_1236" data-name="Path 1236" d="M261.624,221a4.185,4.185,0,0,1,2.624.719,3.915,3.915,0,0,1,0,6.183,4.188,4.188,0,0,1-2.624.719h-2.4V221Zm2.112,2.155a2.33,2.33,0,0,0-1.948-.849H260.7v5.008h1.089a2.328,2.328,0,0,0,1.948-.849,2.743,2.743,0,0,0,0-3.309Z" transform="translate(-198.274 -210.635)" fill="#ddd"/>
        <path id="Path_1237" data-name="Path 1237" d="M280.259,222.309v1.781H282.6V225.4h-2.341v1.921h3.212v1.307H278.79V221h4.572v1.306Z" transform="translate(-208.583 -210.635)" fill="#ddd"/>
      </g>
      <path id="Path_1238" data-name="Path 1238" d="M296.139,225.4v3.221h-1.47V221h3.238a2.307,2.307,0,0,1,1.666.566,2.316,2.316,0,0,1,0,3.268,1.968,1.968,0,0,1-.762.447l1.774,3.341h-1.664l-1.633-3.221Zm1.681-1.307a.9.9,0,0,0,.74-.228,1.108,1.108,0,0,0,0-1.319.9.9,0,0,0-.74-.24h-1.681v1.787Z" transform="translate(-216.95 -210.634)" fill="#ddd"/>
      <path id="Path_1239" data-name="Path 1239" d="M314.193,224.081c-1.5-.358-1.738-.628-1.738-1.133v-.022c0-.5.468-.842,1.164-.842a3.292,3.292,0,0,1,1.991.763l.039.029.755-1.074-.035-.027a4.172,4.172,0,0,0-2.729-.955,2.321,2.321,0,0,0-2.588,2.224v.022c0,1.408.883,1.89,2.513,2.288,1.4.325,1.643.614,1.643,1.1v.022c0,.544-.5.9-1.271.9a3.369,3.369,0,0,1-2.318-.964l-.037-.032-.847,1.017.034.03a4.62,4.62,0,0,0,3.136,1.213c1.643,0,2.7-.9,2.7-2.289v-.021C316.611,224.955,315.644,224.437,314.193,224.081Z" transform="translate(-225.417 -210.538)" fill="#ddd"/>
      <path id="Path_1240" data-name="Path 1240" d="M281.086,202.4c-1.5-.358-1.738-.627-1.738-1.133v-.021c0-.5.468-.843,1.164-.843a3.292,3.292,0,0,1,1.991.763l.039.03.755-1.074-.035-.028a4.174,4.174,0,0,0-2.729-.954,2.321,2.321,0,0,0-2.588,2.224v.021c0,1.408.883,1.89,2.513,2.288,1.4.325,1.643.614,1.643,1.1v.021c0,.544-.5.9-1.271.9a3.37,3.37,0,0,1-2.318-.965l-.037-.032-.847,1.016.034.031a4.619,4.619,0,0,0,3.136,1.213c1.643,0,2.7-.9,2.7-2.289v-.021C283.5,203.269,282.537,202.751,281.086,202.4Z" transform="translate(-207.971 -199.111)" fill="#ddd"/>
      <rect id="Rectangle_1707" data-name="Rectangle 1707" width="13.102" height="1.399" transform="translate(39.077 24.52)" fill="#ddd"/>
    </g>
  </g>
</svg>
